<svg width="40" height="40" viewBox="0 0 40 40" fill="none" xmlns="http://www.w3.org/2000/svg">
<circle cx="20" cy="20" r="20" fill="url(#paint0_linear_114_5)"/>
<path d="M20.58 26.126C19.704 26.126 18.912 25.976 18.204 25.676C17.508 25.376 16.956 24.944 16.548 24.38C16.14 23.816 15.93 23.15 15.918 22.382H18.618C18.654 22.898 18.834 23.306 19.158 23.606C19.494 23.906 19.95 24.056 20.526 24.056C21.114 24.056 21.576 23.918 21.912 23.642C22.248 23.354 22.416 22.982 22.416 22.526C22.416 22.154 22.302 21.848 22.074 21.608C21.846 21.368 21.558 21.182 21.21 21.05C20.874 20.906 20.406 20.75 19.806 20.582C18.99 20.342 18.324 20.108 17.808 19.88C17.304 19.64 16.866 19.286 16.494 18.818C16.134 18.338 15.954 17.702 15.954 16.91C15.954 16.166 16.14 15.518 16.512 14.966C16.884 14.414 17.406 13.994 18.078 13.706C18.75 13.406 19.518 13.256 20.382 13.256C21.678 13.256 22.728 13.574 23.532 14.21C24.348 14.834 24.798 15.71 24.882 16.838H22.11C22.086 16.406 21.9 16.052 21.552 15.776C21.216 15.488 20.766 15.344 20.202 15.344C19.71 15.344 19.314 15.47 19.014 15.722C18.726 15.974 18.582 16.34 18.582 16.82C18.582 17.156 18.69 17.438 18.906 17.666C19.134 17.882 19.41 18.062 19.734 18.206C20.07 18.338 20.538 18.494 21.138 18.674C21.954 18.914 22.62 19.154 23.136 19.394C23.652 19.634 24.096 19.994 24.468 20.474C24.84 20.954 25.026 21.584 25.026 22.364C25.026 23.036 24.852 23.66 24.504 24.236C24.156 24.812 23.646 25.274 22.974 25.622C22.302 25.958 21.504 26.126 20.58 26.126Z" fill="white"/>
<defs>
<linearGradient id="paint0_linear_114_5" x1="40" y1="0" x2="0" y2="40" gradientUnits="userSpaceOnUse">
<stop stop-color="#B75CFF"/>
<stop offset="1" stop-color="#671AE4"/>
</linearGradient>
</defs>
</svg>
